# xmcd
#
# Track frame offsets:
#	150
#	953
#	49048
#	78639
#	96179
#	101320
#	158367
#	198377
#	239079
#
# Disc length: 3782 seconds
#
# Revision: 1
# Processed by: cddbd v1.5PL3 Copyright (c) Steve Scherf et al.
# Submitted via: audiograbber 1.82.01
#
DISCID=5f0ec409
DTITLE=Gov't Mule - 1995-10-24 - Rick's, East Lansing, MI - Disc 2
DYEAR=1900
DGENRE=
TTITLE0=Gov't Mule - redundant fade in
TTITLE1=Gov't Mule - Born Under A Bad Sign
TTITLE2=Gov't Mule - Left Coast Groovies
TTITLE3=Gov't Mule - Drums
TTITLE4=Gov't Mule - Left Coast Groovies
TTITLE5=Gov't Mule - World Of Difference
TTITLE6=Gov't Mule - Mule
TTITLE7=Gov't Mule - Kind Of Bird
TTITLE8=Gov't Mule - Young Mule Blues - Good Morning Little School Girl - Young
TTITLE8=Mule Blues
EXTD=
EXTT0=
EXTT1=
EXTT2=
EXTT3=
EXTT4=
EXTT5=
EXTT6=
EXTT7=
EXTT8=
PLAYORDER=
